<svg width="28" height="28" viewBox="0 0 28 28" fill="none" xmlns="http://www.w3.org/2000/svg">
<path d="M9.33333 10.5H18.6667M9.33333 15.1667H16.3333M10.5 21H7C6.07174 21 5.1815 20.6312 4.52513 19.9749C3.86875 19.3185 3.5 18.4282 3.5 17.5V8.16666C3.5 7.2384 3.86875 6.34816 4.52513 5.69178C5.1815 5.03541 6.07174 4.66666 7 4.66666H21C21.9283 4.66666 22.8185 5.03541 23.4749 5.69178C24.1313 6.34816 24.5 7.2384 24.5 8.16666V17.5C24.5 18.4282 24.1313 19.3185 23.4749 19.9749C22.8185 20.6312 21.9283 21 21 21H17.5L14 24.5L10.5 21Z" stroke="#12132D" stroke-opacity="0.6" stroke-width="1.5" stroke-linecap="round" stroke-linejoin="round"/>
</svg>
